<svg width="27" height="26" viewBox="0 0 27 26" fill="none" xmlns="http://www.w3.org/2000/svg">
<path d="M20.1613 9.90545L19.8363 19.7424C19.8086 20.5849 19.4537 21.3834 18.847 21.9685C18.2402 22.5536 17.4293 22.8792 16.5863 22.8762H10.4113C9.56895 22.8792 8.75851 22.5541 8.15181 21.9697C7.5451 21.3852 7.18984 20.5875 7.16133 19.7456L6.83633 9.90545C6.82922 9.68996 6.908 9.48047 7.05535 9.32307C7.20269 9.16567 7.40653 9.07325 7.62202 9.06614C7.83751 9.05903 8.047 9.13781 8.2044 9.28515C8.3618 9.4325 8.45422 9.63634 8.46133 9.85182L8.78633 19.6912C8.80252 20.1112 8.98084 20.5087 9.28385 20.8C9.58686 21.0914 9.99098 21.254 10.4113 21.2536H16.5863C17.0072 21.2539 17.4118 21.0909 17.7149 20.7988C18.018 20.5068 18.196 20.1086 18.2113 19.688L18.5363 9.85182C18.5434 9.63634 18.6359 9.4325 18.7933 9.28515C18.9507 9.13781 19.1602 9.05903 19.3756 9.06614C19.5911 9.07325 19.795 9.16567 19.9423 9.32307C20.0897 9.48047 20.1684 9.68996 20.1613 9.90545ZM21.2363 6.63189C21.2363 6.84737 21.1507 7.05404 20.9983 7.20641C20.8459 7.35878 20.6393 7.44439 20.4238 7.44439H6.57471C6.35922 7.44439 6.15256 7.35878 6.00018 7.20641C5.84781 7.05404 5.76221 6.84737 5.76221 6.63189C5.76221 6.4164 5.84781 6.20974 6.00018 6.05736C6.15256 5.90499 6.35922 5.81939 6.57471 5.81939H9.09346C9.3509 5.82008 9.59938 5.72497 9.79057 5.55256C9.98175 5.38015 10.1019 5.14278 10.1278 4.88664C10.1877 4.28578 10.4692 3.72877 10.9174 3.32412C11.3656 2.91948 11.9484 2.69619 12.5523 2.69776H14.4454C15.0492 2.69619 15.632 2.91948 16.0802 3.32412C16.5284 3.72877 16.8099 4.28578 16.8699 4.88664C16.8957 5.14278 17.0159 5.38015 17.2071 5.55256C17.3983 5.72497 17.6468 5.82008 17.9042 5.81939H20.423C20.6384 5.81939 20.8451 5.90499 20.9975 6.05736C21.1499 6.20974 21.2355 6.4164 21.2355 6.63189H21.2363ZM11.5383 5.81939H15.461C15.3543 5.57543 15.2844 5.31692 15.2538 5.05239C15.2337 4.85211 15.14 4.66644 14.9907 4.53134C14.8415 4.39624 14.6475 4.32134 14.4462 4.32114H12.5531C12.3518 4.32134 12.1578 4.39624 12.0085 4.53134C11.8593 4.66644 11.7656 4.85211 11.7455 5.05239C11.7146 5.31697 11.6453 5.57547 11.5383 5.81939ZM12.3565 18.1296V11.2111C12.3565 10.9956 12.2709 10.789 12.1185 10.6366C11.9661 10.4842 11.7594 10.3986 11.544 10.3986C11.3285 10.3986 11.1218 10.4842 10.9694 10.6366C10.8171 10.789 10.7315 10.9956 10.7315 11.2111V18.1328C10.7315 18.3483 10.8171 18.555 10.9694 18.7073C11.1218 18.8597 11.3285 18.9453 11.544 18.9453C11.7594 18.9453 11.9661 18.8597 12.1185 18.7073C12.2709 18.555 12.3565 18.3483 12.3565 18.1328V18.1296ZM16.2678 18.1296V11.2111C16.2678 10.9956 16.1822 10.789 16.0299 10.6366C15.8775 10.4842 15.6708 10.3986 15.4553 10.3986C15.2398 10.3986 15.0332 10.4842 14.8808 10.6366C14.7284 10.789 14.6428 10.9956 14.6428 11.2111V18.1328C14.6428 18.3483 14.7284 18.555 14.8808 18.7073C15.0332 18.8597 15.2398 18.9453 15.4553 18.9453C15.6708 18.9453 15.8775 18.8597 16.0299 18.7073C16.1822 18.555 16.2678 18.3483 16.2678 18.1328V18.1296Z" fill="white"/>
</svg>
